<svg id="Calque_1" data-name="Calque 1" xmlns="http://www.w3.org/2000/svg" viewBox="0 0 500 500"><defs><style>.cls-1{fill:#5a622c;}.cls-2{fill:#f19328;}.cls-3{fill:#af1621;}.cls-4{fill:#fcdb1b;}</style></defs><path class="cls-1" d="M406.1,316.52s21.28-21.8,20.26-45.56L425.1,269s-8.11,5.31-13.68,4.19l-3.3,2.23s-2.78-2.51-7.6,1.68c0,0-4-7.26-8.61-5l3-3.35s-1.77-6.71-16-14.53c0,0-2.79-3.36-6.59-13.42l-5.57-3.91s-.76-5.87-1.52-12c0,0-3-4.47-6.33-4.75a57.83,57.83,0,0,1-.76-7.82s-2.79-.28-6.84-10.06c0,0-4.82-9.23-6.08-10.06l-2-4.2,1-1.67s4.56,8.38,7.86,9.78c0,0,4.3-5.87-.26-15.93,0,0-4.81,2.51-11.4-1.12,0,0-6.33,1.4-9.12,3.63,0,0-2.28-2.51-7.09-.83,0,0,1.52-3.92-12.41-3.08l4.05-1.12L307.55,176a2.06,2.06,0,0,0,.25-2.52c-.76-1.68-10.13-2.51-13.42,5,0,0,3.54,3.91-2,6.15,0,0-7.09-5-12.67-4.47,0,0-2.78-2.8-2.78-5.59,0,0-4.56-2.8-9.12-1.12,0,0-2.79-5-6.84-3.35,0,0-5.58-3.36,1.26-7.27a5.33,5.33,0,0,0-2.53-6.15s2.28-.28,2.53-3.91a7.87,7.87,0,0,0-8.86,1.4s-4.06-3.08-11.15.28c0,0-10.89-4.75-20.27,1.67h-4.56s-8.36,6.43-16.21-2.51c0,0-3.3,1.12-5.58,6.71,0,0-6.58,5-11.65,6.42,0,0-4.56,5-4,11.18,0,0-5.07,6.71-13.18,8.39a13.9,13.9,0,0,0-4.81,7s-4.81,0-7.6,8.67c0,0-8.87,7.82-11.15,15.09,0,0,5.83,12.29-6.58,31.3l3,5.87-2.28,6.7s10.38,3.92,13.93,24.32c0,0,8.87,7,20,15.65,0,0,20.52-6.71,27.11-.56,0,0,28.88-17.05,32.43,1.39,0,0-.25,3.08,13.17-.56,0,0,8.62,5.87,2.54,15.38a13.63,13.63,0,0,1-2,10.06,50.25,50.25,0,0,1,1.27,5.31s18.24,19,18,31.57L262,365.14s5.07,10.34,3.29,15.09-7.09,1.4-7.34,26.27c0,0,11.65,18.17,11.65,24.31,0,0-1.77,15.38,7.35,24.88,0,0,5.06,10.34,5.06,12.29,0,0,4.56,3.08,1,7.27,0,0,.76,8.1,7.6,8.66a25.36,25.36,0,0,1,17.73-2.23c9.63,2.51,20.52-10.06,25.59-19.29l6.08-5s5.06-7.26,2-12c0,0,1.27-3.92,4.82-4.47,0,0,11.9,0,7.09-19.29,0,0-4.56-3.35,5.83-8.38,0,0,3.29-2.24,4.3-5.31,0,0,14.19-3.35,15.71-12.86,0,0-.25-12.29-.25-15.93,0,0,4.05-3.07-2.54-6.14a10.07,10.07,0,0,0-2.53-7.55s5.07-6.15-.76-9.78a41,41,0,0,1,13.93-23.2S395.46,318.75,406.1,316.52Zm8.5,70.8s-6.05,12.43-17.48,15c0,0-4.58.54-4.9,6.12,0,0,2.77,9.73-2,15.14,0,0-4.09,4.33-2,13,0,0-1.64,4.68.81,7.75,0,0,2.94,2,3.11,3.06,0,0,5.72-3.6,8.49-3.06,0,0,6.86-16.58,11.77-30.46a39.91,39.91,0,0,0,4.41-14.06l1.14,2.89s4.9-6.13-1.14-16.94A1.75,1.75,0,0,0,414.6,387.32Z"/><path class="cls-1" d="M373.44,108.35a6.25,6.25,0,0,0-.64-2.57c-12.37-30.29-31-55.25-60.36-71.18a152,152,0,0,0-71.1-18.48c-6.82-.12-13.55,0-20.31,2-7.77,2.24-16,2.77-23.83,4.93-35.94,10-65.12,30.12-86.87,60.3-24.88,34.51-33.34,73-25.45,114.93.67,3.52,2.63,6.8,4,10.19l1.32-.37c0-1.82.12-3.65,0-5.46-.32-4-1-8.08-1.14-12.13-.87-20,3.86-38.79,11.84-56.93a151.07,151.07,0,0,1,26.21-40.43c23.23-25.8,52-42.26,85.82-50.13a149.55,149.55,0,0,1,80.52,3.11A136,136,0,0,1,335.1,67.9c13.38,10.24,24.76,22.22,32.57,37.3l.08.18a.54.54,0,0,1-.05-.11.54.54,0,0,0,.05.11,13.08,13.08,0,0,1,.54,1.27c1.4,2.72,3.92,4.88,5.27,7.62l.34.15A24.68,24.68,0,0,1,373.44,108.35Z"/><path class="cls-2" d="M388.62,148.72a6.69,6.69,0,0,0-.59-2.57C376.52,115.86,359.16,90.9,331.87,75a133.89,133.89,0,0,0-66.15-18.49c-6.35-.11-12.61,0-18.9,2-7.23,2.24-14.91,2.77-22.17,4.93-33.44,10-60.6,30.11-80.83,60.3-23.15,34.51-31,73-23.68,114.93.62,3.52,2.45,6.8,3.71,10.19l1.23-.37c0-1.82.11-3.65,0-5.46-.3-4.05-.89-8.08-1.06-12.14-.81-20,3.59-38.78,11-56.92a152.5,152.5,0,0,1,24.39-40.43c21.6-25.8,48.37-42.26,79.85-50.13a129.85,129.85,0,0,1,74.91,3.1A123.75,123.75,0,0,1,353,108.27c12.45,10.23,23,22.22,30.3,37.29,0,.06.05.13.08.19s0-.07,0-.11,0,.07,0,.11a12.89,12.89,0,0,1,.5,1.27c1.31,2.71,3.65,4.87,4.9,7.62l.32.15A27.41,27.41,0,0,1,388.62,148.72Z"/><path class="cls-3" d="M88,291.35a6.52,6.52,0,0,0,.57,2.6c11.56,30.76,29.59,56.36,58.58,73.18A152.79,152.79,0,0,0,218,387.72c6.85.31,13.6.37,20.45-1.39,7.86-2,16.17-2.33,24.06-4.27,36.38-9,66.25-28.39,88.95-58.07,26-33.94,35.56-72.38,28.82-114.68-.56-3.55-2.44-6.89-3.71-10.34l-1.33.34c-.06,1.83-.23,3.66-.14,5.48.21,4.08.73,8.14.8,12.22.3,20.07-5,38.83-13.51,56.82a151.91,151.91,0,0,1-27.47,39.84c-24.06,25.24-53.41,40.95-87.6,47.89a150.29,150.29,0,0,1-80.75-5.41,136.51,136.51,0,0,1-41.23-23.1c-13.15-10.65-24.23-23-31.64-38.37,0-.06,0-.13-.08-.19a.54.54,0,0,1,0,.11.54.54,0,0,0,0-.11,11.11,11.11,0,0,1-.5-1.29c-1.34-2.77-3.8-5-5.08-7.8l-.34-.16A24.66,24.66,0,0,1,88,291.35Z"/><path class="cls-4" d="M73.86,250.39a6.58,6.58,0,0,0,.52,2.59c10.69,30.74,27.42,56.3,54.36,73.07a134.57,134.57,0,0,0,65.9,20.45c6.37.29,12.65.34,19-1.44,7.32-2,15.05-2.35,22.4-4.32,33.86-9.05,61.7-28.51,82.88-58.24,24.22-34,33.22-72.44,27-114.72-.52-3.55-2.26-6.89-3.43-10.33l-1.25.33c-.05,1.83-.21,3.67-.13,5.49.18,4.07.66,8.13.71,12.21.25,20.07-4.71,38.84-12.68,56.84a153.24,153.24,0,0,1-25.64,39.9c-22.43,25.29-49.77,41-81.6,48.06A130.55,130.55,0,0,1,146.84,315a124.32,124.32,0,0,1-38.32-23c-12.21-10.63-22.49-23-29.36-38.31,0-.06,0-.12-.07-.18s0,.07,0,.11,0-.07,0-.11c-.18-.42-.33-.85-.47-1.29-1.23-2.77-3.53-5-4.7-7.8l-.32-.16A26.87,26.87,0,0,1,73.86,250.39Z"/></svg>