<svg id="Calque_1" data-name="Calque 1" xmlns="http://www.w3.org/2000/svg" viewBox="0 0 1000 500"><defs><style>.cls-1,.cls-2{fill:#fff;}.cls-2{stroke:#fff;stroke-miterlimit:10;stroke-width:4px;}</style></defs><path class="cls-1" d="M419.83,311.71s19.74-20.22,18.8-42.26l-1.18-1.82s-7.52,4.93-12.69,3.89l-3.05,2.08s-2.59-2.34-7,1.55c0,0-3.77-6.74-8-4.66l2.82-3.11s-1.64-6.23-14.8-13.49c0,0-2.59-3.11-6.11-12.44l-5.18-3.63s-.7-5.45-1.41-11.15c0,0-2.82-4.15-5.87-4.41a54.77,54.77,0,0,1-.71-7.26s-2.58-.26-6.34-9.33c0,0-4.47-8.56-5.64-9.34l-1.88-3.89.94-1.55s4.23,7.78,7.28,9.07c0,0,4-5.44-.23-14.78,0,0-4.47,2.34-10.58-1,0,0-5.88,1.29-8.46,3.37,0,0-2.12-2.34-6.58-.78,0,0,1.41-3.63-11.52-2.85l3.76-1-7.76-1.56a1.9,1.9,0,0,0,.24-2.33c-.71-1.56-9.4-2.33-12.46,4.67,0,0,3.29,3.63-1.88,5.7,0,0-6.58-4.67-11.75-4.15,0,0-2.59-2.59-2.59-5.18,0,0-4.23-2.6-8.46-1,0,0-2.58-4.67-6.34-3.11,0,0-5.18-3.11,1.17-6.74A5,5,0,0,0,284,163.4s2.12-.26,2.35-3.63a7.31,7.31,0,0,0-8.23,1.3s-3.76-2.85-10.34.26c0,0-10.1-4.41-18.8,1.55h-4.23s-7.76,6-15-2.33c0,0-3.06,1-5.18,6.22,0,0-6.11,4.67-10.81,6,0,0-4.23,4.66-3.76,10.37,0,0-4.7,6.22-12.22,7.78a12.92,12.92,0,0,0-4.47,6.48s-4.46,0-7.05,8c0,0-8.22,7.26-10.34,14,0,0,5.41,11.41-6.11,29l2.82,5.44-2.12,6.23s9.64,3.63,12.93,22.55c0,0,8.23,6.48,18.57,14.52,0,0,19-6.22,25.15-.52,0,0,26.8-15.81,30.09,1.3,0,0-.24,2.85,12.22-.52,0,0,8,5.45,2.35,14.26a12.66,12.66,0,0,1-1.88,9.34A47.3,47.3,0,0,1,271,326s16.93,17.63,16.69,29.3l-1.64,1.56s4.7,9.59,3.05,14-6.58,1.3-6.81,24.37c0,0,10.81,16.85,10.81,22.56,0,0-1.65,14.26,6.81,23.07,0,0,4.7,9.6,4.7,11.41,0,0,4.24,2.86.94,6.74,0,0,.71,7.52,7.06,8A23.52,23.52,0,0,1,329.1,465c8.93,2.33,19-9.34,23.74-17.89l5.64-4.67s4.7-6.74,1.88-11.15c0,0,1.18-3.63,4.47-4.15,0,0,11,0,6.58-17.89,0,0-4.23-3.11,5.4-7.78,0,0,3.06-2.07,4-4.92,0,0,13.16-3.11,14.57-11.93,0,0-.23-11.41-.23-14.78,0,0,3.76-2.85-2.35-5.7a9.34,9.34,0,0,0-2.35-7s4.7-5.71-.71-9.08a38,38,0,0,1,12.93-21.52S410,313.79,419.83,311.71Zm7.88,65.69s-5.6,11.54-16.21,13.88c0,0-4.25.5-4.55,5.69,0,0,2.58,9-1.82,14,0,0-3.79,4-1.82,12,0,0-1.51,4.35.76,7.19,0,0,2.73,1.84,2.88,2.84,0,0,5.3-3.34,7.88-2.84,0,0,6.37-15.38,10.91-28.26a36.91,36.91,0,0,0,4.1-13l1.06,2.68s4.54-5.69-1.06-15.72A1.63,1.63,0,0,0,427.71,377.4Z"/><path class="cls-1" d="M389.53,118.58a5.89,5.89,0,0,0-.59-2.39c-11.48-28.09-28.8-51.26-56-66A141,141,0,0,0,267,33c-6.33-.11-12.57,0-18.85,1.82-7.21,2.07-14.87,2.57-22.1,4.57-33.35,9.25-60.43,27.94-80.61,56-23.07,32-30.93,67.76-23.61,106.63.62,3.27,2.44,6.31,3.71,9.45l1.22-.34c0-1.69.11-3.39,0-5.07-.3-3.76-.89-7.5-1.06-11.26-.8-18.52,3.59-36,11-52.81A140,140,0,0,1,161,104.44C182.5,80.5,209.2,65.23,240.58,57.93a138.69,138.69,0,0,1,74.7,2.88A126.22,126.22,0,0,1,354,81.05c12.41,9.5,23,20.61,30.21,34.6,0,.06.05.12.08.17l-.05-.1.05.1c.18.38.35.78.5,1.18,1.3,2.52,3.64,4.53,4.89,7.07l.31.14A23.14,23.14,0,0,1,389.53,118.58Z"/><path class="cls-1" d="M403.61,156a6.29,6.29,0,0,0-.54-2.38c-10.68-28.1-26.8-51.27-52.11-66a124.14,124.14,0,0,0-61.38-17.15c-5.89-.11-11.69,0-17.53,1.82-6.71,2.08-13.84,2.57-20.57,4.57-31,9.25-56.22,28-75,56-21.47,32-28.78,67.76-22,106.63.57,3.27,2.27,6.31,3.44,9.45l1.14-.34c0-1.69.1-3.39,0-5.07-.28-3.75-.83-7.49-1-11.25-.75-18.53,3.33-36,10.22-52.82A141.58,141.58,0,0,1,191,141.89C211,118,235.83,102.68,265,95.38a120.56,120.56,0,0,1,69.51,2.88,114.8,114.8,0,0,1,36,20.24c11.55,9.5,21.37,20.62,28.11,34.61a1.11,1.11,0,0,1,.07.16l0-.09,0,.09c.18.39.33.78.47,1.18,1.21,2.52,3.39,4.53,4.55,7.08l.29.14A24.84,24.84,0,0,1,403.61,156Z"/><path class="cls-1" d="M124.66,288.36a5.72,5.72,0,0,0,.52,2.41c10.72,28.54,27.45,52.29,54.35,67.91a141.78,141.78,0,0,0,65.74,19.1c6.36.28,12.62.34,19-1.29,7.29-1.89,15-2.16,22.32-4,33.75-8.33,61.47-26.33,82.53-53.87,24.08-31.49,33-67.16,26.74-106.4-.52-3.29-2.27-6.4-3.45-9.59l-1.23.31c-.05,1.7-.21,3.4-.13,5.09.19,3.78.68,7.55.74,11.33.28,18.62-4.62,36-12.53,52.72a141.13,141.13,0,0,1-25.49,37c-22.32,23.42-49.55,38-81.27,44.43a139.32,139.32,0,0,1-74.93-5,126.54,126.54,0,0,1-38.25-21.42c-12.2-9.89-22.48-21.36-29.35-35.61a.87.87,0,0,1-.07-.17,1,1,0,0,0,0,.1,1,1,0,0,1,0-.1,10.29,10.29,0,0,1-.47-1.2c-1.24-2.56-3.53-4.64-4.71-7.24l-.31-.15A23.6,23.6,0,0,1,124.66,288.36Z"/><path class="cls-1" d="M111.58,250.36a6.24,6.24,0,0,0,.48,2.41C122,281.28,137.5,305,162.5,320.56a124.75,124.75,0,0,0,61.13,19c5.91.27,11.75.32,17.66-1.33,6.79-1.9,14-2.19,20.78-4,31.42-8.4,57.25-26.45,76.9-54,22.47-31.54,30.83-67.22,25.09-106.44-.48-3.3-2.1-6.4-3.19-9.59l-1.15.31c-.05,1.7-.2,3.4-.12,5.09.17,3.78.61,7.55.66,11.33.22,18.62-4.37,36-11.77,52.74a142.32,142.32,0,0,1-23.79,37C303.89,294.08,278.52,308.7,249,315.2a121.06,121.06,0,0,1-69.7-4.87A115.25,115.25,0,0,1,143.74,289c-11.33-9.86-20.87-21.31-27.24-35.54,0-.06,0-.12-.07-.17l0,.09,0-.09a12.21,12.21,0,0,1-.43-1.2c-1.15-2.57-3.28-4.64-4.37-7.23l-.29-.15A24.7,24.7,0,0,1,111.58,250.36Z"/><path class="cls-2" d="M546.38,346.43H513.14L507,363.38h-10.5l27.55-75.77h11.48L563,363.38H552.5Zm-16.62-46.58L516,338.34h27.55Z"/><path class="cls-2" d="M641.93,309.26H630c-4.16-8.86-12.47-14-23.18-14-16.08,0-28.1,11.59-28.1,30s12,29.85,28.1,29.85c15,0,25.25-9.62,26.78-24.71H603.23v-8.09h41v7.65C642.48,348.84,627.5,364,606.84,364c-21.43,0-38.27-16-38.27-38.81s16.84-38.92,38.27-38.92C622.91,286.3,636.25,294.61,641.93,309.26Z"/><path class="cls-2" d="M654.61,287.17h9.95v76.21h-9.95Z"/><path class="cls-2" d="M504.92,389.11h9.95v76.21h-9.95Z"/><path class="cls-2" d="M574.13,448.37H540.89l-6.12,16.95h-10.5l27.55-75.77H563.3l27.45,75.77h-10.5ZM557.51,401.8l-13.78,38.48h27.55Z"/><path class="cls-2" d="M669.68,411.2H657.76c-4.15-8.86-12.46-14-23.17-14-16.08,0-28.1,11.59-28.1,30s12,29.85,28.1,29.85c15,0,25.25-9.62,26.78-24.71H631v-8.09h41v7.65C670.23,450.78,655.25,466,634.59,466c-21.43,0-38.27-16-38.27-38.82s16.84-38.92,38.27-38.92C650.66,388.24,664,396.55,669.68,411.2Z"/><path class="cls-1" d="M700.52,299.85h-8l-1.46,3.87h-2.52l6.61-17.3h2.75l6.59,17.3H702Zm-4-10.64-3.3,8.79h6.61Z"/><path class="cls-1" d="M707.19,291.91h-1.87V290h1.87v-1c0-3,1.57-4.42,5.24-4.42v1.9c-2.15,0-2.86.75-2.86,2.52v1h3v1.87h-3v11.81h-2.38Z"/><path class="cls-1" d="M717.11,303.72h-2.39V290h2.39v2.22a4.89,4.89,0,0,1,4.64-2.47v2.34h-.63c-2.28,0-4,1-4,4.15Z"/><path class="cls-1" d="M723.46,286.27a1.6,1.6,0,1,1,1.62,1.54A1.56,1.56,0,0,1,723.46,286.27Zm.39,3.77h2.39v13.68h-2.39Z"/><path class="cls-1" d="M735.76,289.81c3.57,0,5.9,1.75,6.64,4.62h-2.57a3.91,3.91,0,0,0-4.07-2.7c-2.62,0-4.56,1.78-4.56,5.12s1.94,5.17,4.56,5.17c2.13,0,3.54-1,4.07-2.69h2.57c-.74,2.72-3.07,4.61-6.64,4.61a7.07,7.07,0,0,1,0-14.13Z"/><path class="cls-1" d="M750.85,289.81a6,6,0,0,1,5.35,2.72V290h2.42v13.68H756.2v-2.55a6.05,6.05,0,0,1-5.38,2.77c-3.83,0-6.79-2.87-6.79-7.11A6.63,6.63,0,0,1,750.85,289.81Zm.47,2a4.72,4.72,0,0,0-4.85,5,4.87,4.87,0,1,0,4.85-5Z"/><path class="cls-1" d="M706.42,321.33h-2.86a5.87,5.87,0,0,0-5.56-3.2,6.83,6.83,0,0,0,0,13.66,6.05,6.05,0,0,0,6.43-5.64h-7.29V324.3H707v1.75a8.7,8.7,0,0,1-9,7.79c-5.14,0-9.18-3.65-9.18-8.87s4-8.89,9.18-8.89C701.86,316.08,705.06,318,706.42,321.33Z"/><path class="cls-1" d="M715.74,333.91a6.8,6.8,0,0,1-7.16-7.09c0-4.32,3.2-7,7.27-7s7.26,2.72,7.26,7S719.83,333.91,715.74,333.91Zm0-2a4.75,4.75,0,0,0,4.93-5.09,4.7,4.7,0,0,0-4.85-5.07c-2.52,0-4.8,1.62-4.8,5.07S713.25,331.91,715.74,331.91Z"/><path class="cls-1" d="M726.47,320,731,331.59,735.42,320H738l-5.65,13.69h-2.78L723.9,320Z"/><path class="cls-1" d="M745.89,333.91a6.75,6.75,0,0,1-7.11-7.09c0-4.32,2.91-7,7.11-7s6.9,2.8,6.9,6.54a12.16,12.16,0,0,1-.08,1.37H741.22a4.43,4.43,0,0,0,4.67,4.3,4,4,0,0,0,4-2.52h2.57C751.77,332,749.46,333.91,745.89,333.91Zm-4.64-8.06h9.07c0-2.67-2.07-4.15-4.53-4.15A4.37,4.37,0,0,0,741.25,325.85Z"/><path class="cls-1" d="M757.67,333.69h-2.38V320h2.38v2.23a4.89,4.89,0,0,1,4.65-2.48v2.35h-.63c-2.29,0-4,1-4,4.15Z"/><path class="cls-1" d="M774.94,326c0-2.8-1.6-4.22-4-4.22s-4.12,1.45-4.12,4.39v7.57h-2.38V320h2.38V322a5.42,5.42,0,0,1,4.62-2.2c3.33,0,5.88,1.95,5.88,5.87v8.07h-2.36Z"/><path class="cls-1" d="M786.48,319.78a6.05,6.05,0,0,1,5.36,2.72V320h2.41v13.69h-2.41v-2.55a6.09,6.09,0,0,1-5.38,2.77,6.73,6.73,0,0,1-6.8-7.11A6.64,6.64,0,0,1,786.48,319.78Zm.48,2a4.73,4.73,0,0,0-4.86,5.05,4.87,4.87,0,1,0,4.86-5.05Z"/><path class="cls-1" d="M808.16,326c0-2.8-1.6-4.22-4-4.22s-4.11,1.45-4.11,4.39v7.57h-2.39V320H800V322a5.39,5.39,0,0,1,4.61-2.2c3.33,0,5.88,1.95,5.88,5.87v8.07h-2.36Z"/><path class="cls-1" d="M819.89,319.78c3.57,0,5.9,1.75,6.64,4.62H824a3.9,3.9,0,0,0-4.06-2.7c-2.63,0-4.57,1.77-4.57,5.12s1.94,5.17,4.57,5.17c2.12,0,3.54-1,4.06-2.7h2.58c-.74,2.72-3.07,4.62-6.64,4.62a7.07,7.07,0,0,1,0-14.13Z"/><path class="cls-1" d="M835.26,333.91a6.75,6.75,0,0,1-7.11-7.09c0-4.32,2.92-7,7.11-7s6.91,2.8,6.91,6.54a12.16,12.16,0,0,1-.08,1.37h-11.5a4.43,4.43,0,0,0,4.67,4.3,3.94,3.94,0,0,0,4-2.52h2.58C841.14,332,838.83,333.91,835.26,333.91Zm-4.64-8.06h9.08c0-2.67-2.07-4.15-4.54-4.15A4.37,4.37,0,0,0,830.62,325.85Z"/><path class="cls-1" d="M689.71,346.25h2.39v17.4h-2.39Z"/><path class="cls-1" d="M706,355.91c0-2.79-1.6-4.22-4-4.22s-4.12,1.45-4.12,4.4v7.56h-2.39V350h2.39v1.95a5.39,5.39,0,0,1,4.61-2.2c3.34,0,5.88,1.95,5.88,5.87v8.06H706Z"/><path class="cls-1" d="M716.74,363.88c-3.36,0-5.72-1.75-5.88-4.25h2.47c.13,1.33,1.36,2.33,3.38,2.33s2.94-.9,2.94-2c0-3-8.5-1.27-8.5-6.36,0-2.1,2.07-3.82,5.27-3.82s5.28,1.62,5.43,4.29h-2.38c-.11-1.37-1.21-2.37-3.13-2.37-1.75,0-2.8.8-2.8,1.9,0,3.24,8.34,1.47,8.44,6.36C722,362.18,719.91,363.88,716.74,363.88Z"/><path class="cls-1" d="M725.21,351.84h-1.86V350h1.86v-3.44h2.39V350h3.75v1.87H727.6v8.07c0,1.35.53,1.82,2,1.82h1.76v1.92H729.2c-2.54,0-4-1-4-3.74Z"/><path class="cls-1" d="M733.19,346.2a1.6,1.6,0,0,1,3.2,0,1.6,1.6,0,0,1-3.2,0Zm.39,3.77H736v13.68h-2.39Z"/><path class="cls-1" d="M739.91,351.84h-1.86V350h1.86v-3.44h2.39V350h3.75v1.87H742.3v8.07c0,1.35.52,1.82,2,1.82h1.76v1.92H743.9c-2.55,0-4-1-4-3.74Z"/><path class="cls-1" d="M761,363.65h-2.39v-2a5.35,5.35,0,0,1-4.59,2.22c-3.31,0-5.9-1.94-5.9-5.86v-8h2.36v7.72c0,2.77,1.6,4.19,4,4.19s4.12-1.45,4.12-4.39V350H761Z"/><path class="cls-1" d="M764.94,351.84h-1.86V350h1.86v-3.44h2.39V350h3.75v1.87h-3.75v8.07c0,1.35.52,1.82,2,1.82h1.76v1.92h-2.15c-2.55,0-4-1-4-3.74Z"/><path class="cls-1" d="M779.53,363.88a6.75,6.75,0,0,1-7.11-7.09c0-4.32,2.91-7,7.11-7s6.9,2.79,6.9,6.54a12.16,12.16,0,0,1-.08,1.37H774.86a4.43,4.43,0,0,0,4.67,4.3,4,4,0,0,0,4-2.53h2.57C785.41,361.93,783.1,363.88,779.53,363.88Zm-4.64-8.07H784c0-2.67-2.07-4.14-4.53-4.14A4.36,4.36,0,0,0,774.89,355.81Z"/><path class="cls-1" d="M690.84,384.94h2.39v18.38h-2.39Z"/><path class="cls-1" d="M707.16,395.14c0-2.95-1.6-4.45-4-4.45s-4.12,1.53-4.12,4.64v8h-2.39V388.87H699v2.05a5.29,5.29,0,0,1,4.61-2.32c3.34,0,5.88,2.06,5.88,6.2v8.52h-2.36Z"/><path class="cls-1" d="M717.87,403.56c-3.36,0-5.72-1.85-5.88-4.48h2.47c.13,1.39,1.36,2.45,3.38,2.45s2.94-.95,2.94-2.14c0-3.22-8.5-1.34-8.5-6.72,0-2.22,2.07-4,5.27-4s5.27,1.71,5.43,4.54h-2.39c-.1-1.45-1.2-2.51-3.12-2.51-1.76,0-2.81.84-2.81,2,0,3.42,8.35,1.55,8.45,6.72C723.11,401.77,721,403.56,717.87,403.56Z"/><path class="cls-1" d="M726.34,390.84h-1.86v-2h1.86v-3.64h2.39v3.64h3.75v2h-3.75v8.53c0,1.42.52,1.92,2,1.92h1.76v2h-2.15c-2.55,0-4-1.05-4-3.95Z"/><path class="cls-1" d="M734.32,384.88a1.6,1.6,0,1,1,1.63,1.64A1.61,1.61,0,0,1,734.32,384.88Zm.39,4h2.39v14.45h-2.39Z"/><path class="cls-1" d="M741,390.84h-1.87v-2H741v-3.64h2.38v3.64h3.76v2h-3.76v8.53c0,1.42.53,1.92,2,1.92h1.76v2H745c-2.54,0-4-1.05-4-3.95Z"/><path class="cls-1" d="M762.16,403.32h-2.39v-2.13a5.29,5.29,0,0,1-4.59,2.34c-3.31,0-5.9-2-5.9-6.2v-8.46h2.36V397c0,2.93,1.6,4.43,4,4.43s4.12-1.53,4.12-4.64v-7.94h2.39Z"/><path class="cls-1" d="M766.07,390.84h-1.86v-2h1.86v-3.64h2.39v3.64h3.75v2h-3.75v8.53c0,1.42.52,1.92,2,1.92h1.76v2h-2.15c-2.55,0-4-1.05-4-3.95Z"/><path class="cls-1" d="M701.65,430.9h-8L692.2,435h-2.52l6.62-18.28h2.75L705.64,435h-2.52Zm-4-11.24-3.31,9.28H701Z"/><path class="cls-1" d="M708.31,422.51h-1.86v-2h1.86v-1c0-3.22,1.58-4.67,5.25-4.67v2c-2.15,0-2.86.8-2.86,2.67v1h3v2h-3V435h-2.39Z"/><path class="cls-1" d="M718.23,435h-2.38V420.53h2.38v2.35a4.85,4.85,0,0,1,4.65-2.62v2.48h-.63c-2.28,0-4,1-4,4.38Z"/><path class="cls-1" d="M724.58,416.55a1.61,1.61,0,0,1,1.63-1.64,1.64,1.64,0,0,1,0,3.27A1.61,1.61,0,0,1,724.58,416.55Zm.4,4h2.39V435H725Z"/><path class="cls-1" d="M736.89,420.29c3.57,0,5.9,1.85,6.64,4.88H741a3.93,3.93,0,0,0-4.07-2.85c-2.62,0-4.57,1.88-4.57,5.41s1.95,5.46,4.57,5.46a3.87,3.87,0,0,0,4.07-2.85h2.57a6.4,6.4,0,0,1-6.64,4.88c-4.09,0-7-2.9-7-7.49S732.8,420.29,736.89,420.29Z"/><path class="cls-1" d="M752,420.29a6,6,0,0,1,5.35,2.88v-2.64h2.41V435h-2.41v-2.69a6,6,0,0,1-5.38,2.93c-3.83,0-6.79-3-6.79-7.52S748.12,420.29,752,420.29Zm.47,2.09c-2.62,0-4.85,1.92-4.85,5.32s2.23,5.41,4.85,5.41,4.88-2,4.88-5.38S755.07,422.38,752.45,422.38Z"/><path class="cls-1" d="M762.74,416.55a1.6,1.6,0,1,1,1.62,1.63A1.6,1.6,0,0,1,762.74,416.55Zm.39,4h2.39V435h-2.39Z"/><path class="cls-1" d="M779.45,426.81c0-3-1.6-4.46-4-4.46s-4.12,1.53-4.12,4.64v8h-2.39V420.53h2.39v2.06a5.28,5.28,0,0,1,4.61-2.33c3.34,0,5.88,2.06,5.88,6.2V435h-2.36Z"/><path class="cls-1" d="M797.37,420.29a6.27,6.27,0,0,1,5.33,2.82v-7.65h2.41V435H802.7v-2.71a5.9,5.9,0,0,1-5.35,3c-3.86,0-6.83-3-6.83-7.52S793.49,420.29,797.37,420.29Zm.45,2.09c-2.63,0-4.86,1.92-4.86,5.32s2.23,5.41,4.86,5.41,4.88-2,4.88-5.38S800.44,422.38,797.82,422.38Z"/><path class="cls-1" d="M814.72,435.22c-4.1,0-7.11-2.9-7.11-7.49s2.91-7.44,7.11-7.44a6.61,6.61,0,0,1,6.9,6.91,13.64,13.64,0,0,1-.08,1.45H810.05a4.53,4.53,0,0,0,4.67,4.54,4,4,0,0,0,4-2.66h2.57A6.47,6.47,0,0,1,814.72,435.22Zm-4.65-8.52h9.08a4.23,4.23,0,0,0-4.54-4.38A4.47,4.47,0,0,0,810.07,426.7Z"/><path class="cls-1" d="M690.84,447.12h2.39v19.53h-2.39Z"/><path class="cls-1" d="M702.57,452a6,6,0,0,1,5.35,2.88v-2.64h2.41v14.46h-2.41V464a6,6,0,0,1-5.38,2.92c-3.83,0-6.79-3-6.79-7.51S698.71,452,702.57,452ZM703,454c-2.62,0-4.85,1.92-4.85,5.33s2.23,5.4,4.85,5.4,4.88-2,4.88-5.38S705.66,454,703,454Z"/><path class="cls-1" d="M736.78,453.59h-2.86a5.82,5.82,0,0,0-5.56-3.38c-3.86,0-6.74,2.8-6.74,7.23s2.88,7.2,6.74,7.2a6.18,6.18,0,0,0,6.43-6H727.5v-1.95h9.83v1.84a8.89,8.89,0,0,1-9,8.24,9.38,9.38,0,0,1,0-18.76A8.63,8.63,0,0,1,736.78,453.59Z"/><path class="cls-1" d="M746.1,466.88c-4.07,0-7.16-2.9-7.16-7.49a7.27,7.27,0,1,1,14.53,0A7.15,7.15,0,0,1,746.1,466.88Zm0-2.11c2.49,0,4.93-1.71,4.93-5.38s-2.38-5.35-4.85-5.35-4.8,1.71-4.8,5.35S743.61,464.77,746.1,464.77Z"/><path class="cls-1" d="M768.72,466.65h-2.39v-2.14a5.29,5.29,0,0,1-4.59,2.35c-3.31,0-5.9-2.06-5.9-6.2v-8.47h2.36v8.15c0,2.93,1.6,4.43,4,4.43s4.12-1.53,4.12-4.64v-7.94h2.39Z"/><path class="cls-1" d="M773,452.19l4.49,12.24,4.46-12.24h2.54l-5.64,14.46H776l-5.64-14.46Z"/><path class="cls-1" d="M792.39,466.88c-4.1,0-7.11-2.9-7.11-7.49s2.91-7.44,7.11-7.44a6.61,6.61,0,0,1,6.9,6.91,14,14,0,0,1-.08,1.46H787.72a4.53,4.53,0,0,0,4.67,4.53,4,4,0,0,0,4-2.66H799A6.46,6.46,0,0,1,792.39,466.88Zm-4.65-8.52h9.08a4.23,4.23,0,0,0-4.54-4.38A4.47,4.47,0,0,0,787.74,458.36Z"/><path class="cls-1" d="M804.17,466.65h-2.39V452.19h2.39v2.35a4.83,4.83,0,0,1,4.64-2.61v2.48h-.63c-2.28,0-4,1-4,4.38Z"/><path class="cls-1" d="M821.43,458.47c0-3-1.6-4.46-4-4.46s-4.12,1.53-4.12,4.64v8h-2.39V452.19h2.39v2.06a5.3,5.3,0,0,1,4.62-2.32c3.33,0,5.88,2.05,5.88,6.2v8.52h-2.37Z"/><path class="cls-1" d="M833,452a6,6,0,0,1,5.35,2.88v-2.64h2.42v14.46h-2.42V464a6,6,0,0,1-5.37,2.92c-3.84,0-6.8-3-6.8-7.51S829.12,452,833,452Zm.47,2.09c-2.62,0-4.85,1.92-4.85,5.33s2.23,5.4,4.85,5.4,4.88-2,4.88-5.38S836.08,454,833.45,454Z"/><path class="cls-1" d="M854.65,458.47c0-3-1.6-4.46-4-4.46s-4.12,1.53-4.12,4.64v8h-2.39V452.19h2.39v2.06a5.3,5.3,0,0,1,4.62-2.32c3.33,0,5.88,2.05,5.88,6.2v8.52h-2.37Z"/><path class="cls-1" d="M866.39,452c3.56,0,5.9,1.85,6.63,4.88h-2.57a3.92,3.92,0,0,0-4.06-2.85c-2.63,0-4.57,1.88-4.57,5.41s1.94,5.46,4.57,5.46a3.85,3.85,0,0,0,4.06-2.85H873a6.39,6.39,0,0,1-6.63,4.88c-4.1,0-7-2.9-7-7.49S862.29,452,866.39,452Z"/><path class="cls-1" d="M881.76,466.88c-4.09,0-7.11-2.9-7.11-7.49s2.91-7.44,7.11-7.44a6.61,6.61,0,0,1,6.9,6.91,11.69,11.69,0,0,1-.08,1.46H877.09a4.53,4.53,0,0,0,4.67,4.53,4,4,0,0,0,4-2.66h2.57A6.46,6.46,0,0,1,881.76,466.88Zm-4.64-8.52h9.08a4.24,4.24,0,0,0-4.54-4.38A4.46,4.46,0,0,0,877.12,458.36Z"/></svg>