<svg id="Calque_1" data-name="Calque 1" xmlns="http://www.w3.org/2000/svg" viewBox="0 0 1500 500"><defs><style>.cls-1,.cls-2{fill:#fff;}.cls-2{stroke:#fff;stroke-miterlimit:10;stroke-width:4px;}</style></defs><path class="cls-1" d="M359.43,319.24s22.15-22.69,21.1-47.42l-1.32-2s-8.44,5.52-14.24,4.36l-3.43,2.33s-2.9-2.62-7.91,1.74c0,0-4.22-7.56-9-5.23l3.17-3.49s-1.85-7-16.62-15.13c0,0-2.9-3.49-6.86-14l-5.8-4.07s-.79-6.11-1.58-12.51c0,0-3.16-4.65-6.59-4.94a60.57,60.57,0,0,1-.79-8.15s-2.9-.29-7.12-10.47c0,0-5-9.6-6.33-10.48L294,185.42l1.05-1.74s4.75,8.72,8.18,10.18c0,0,4.48-6.11-.27-16.59,0,0-5,2.62-11.86-1.16,0,0-6.6,1.46-9.5,3.78,0,0-2.37-2.62-7.38-.87,0,0,1.58-4.07-12.92-3.2l4.22-1.16-8.71-1.75a2.13,2.13,0,0,0,.27-2.62c-.79-1.74-10.55-2.62-14,5.24,0,0,3.69,4.07-2.11,6.4,0,0-7.38-5.24-13.19-4.66,0,0-2.9-2.9-2.9-5.81,0,0-4.74-2.91-9.49-1.17,0,0-2.9-5.23-7.12-3.49,0,0-5.8-3.49,1.32-7.56a5.56,5.56,0,0,0-2.64-6.4s2.37-.29,2.64-4.08a8.2,8.2,0,0,0-9.23,1.46s-4.22-3.2-11.61.29c0,0-11.34-4.95-21.1,1.75H163s-8.71,6.69-16.88-2.62c0,0-3.43,1.16-5.8,7,0,0-6.86,5.24-12.13,6.69,0,0-4.75,5.24-4.22,11.64,0,0-5.28,7-13.72,8.73,0,0-3.95,2.9-5,7.27,0,0-5,0-7.91,9,0,0-9.23,8.14-11.6,15.71,0,0,6.06,12.8-6.86,32.58L82,254.37l-2.38,7s10.81,4.07,14.51,25.31c0,0,9.23,7.27,20.83,16.29,0,0,21.36-7,28.22-.58,0,0,30.06-17.75,33.75,1.45,0,0-.26,3.2,13.72-.58,0,0,9,6.11,2.64,16a14.19,14.19,0,0,1-2.11,10.47,53.05,53.05,0,0,1,1.31,5.53s19,19.78,18.73,32.88l-1.85,1.74s5.28,10.76,3.43,15.71-7.38,1.46-7.65,27.35c0,0,12.13,18.91,12.13,25.31,0,0-1.84,16,7.65,25.89,0,0,5.28,10.76,5.28,12.8,0,0,4.74,3.2,1,7.56,0,0,.79,8.44,7.91,9a26.42,26.42,0,0,1,18.46-2.33c10,2.62,21.36-10.47,26.64-20.07l6.33-5.24s5.27-7.56,2.11-12.51c0,0,1.32-4.07,5-4.65,0,0,12.39,0,7.38-20.07,0,0-4.74-3.5,6.07-8.73,0,0,3.43-2.33,4.48-5.53,0,0,14.77-3.49,16.35-13.38,0,0-.26-12.8-.26-16.58,0,0,4.22-3.2-2.64-6.4,0,0,.53-4.66-2.64-7.86,0,0,5.28-6.4-.79-10.18a42.59,42.59,0,0,1,14.51-24.15S348.35,321.57,359.43,319.24ZM368.28,393s-6.29,12.94-18.2,15.57c0,0-4.76.56-5.1,6.38,0,0,2.89,10.13-2,15.75,0,0-4.25,4.51-2,13.51,0,0-1.7,4.88.85,8.07,0,0,3.06,2.06,3.23,3.19,0,0,5.95-3.75,8.84-3.19,0,0,7.15-17.26,12.25-31.71a41.36,41.36,0,0,0,4.59-14.63l1.19,3s5.1-6.38-1.19-17.63A1.82,1.82,0,0,0,368.28,393Z"/><path class="cls-1" d="M325.43,102.54a6.41,6.41,0,0,0-.66-2.67c-12.88-31.53-32.31-57.52-62.84-74.1a158.24,158.24,0,0,0-74-19.24c-7.1-.12-14.1,0-21.14,2-8.09,2.34-16.69,2.89-24.81,5.14C104.56,24.08,74.18,45.06,51.53,76.48c-25.89,35.92-34.7,76-26.48,119.64.69,3.67,2.73,7.08,4.15,10.61l1.37-.39c0-1.9.13-3.8,0-5.68-.34-4.22-1-8.42-1.18-12.63-.91-20.79,4-40.38,12.32-59.27A157.41,157.41,0,0,1,69,86.68c24.17-26.86,54.12-44,89.33-52.19a155.71,155.71,0,0,1,83.82,3.24,141.4,141.4,0,0,1,43.39,22.71c13.93,10.65,25.78,23.13,33.9,38.82a1.63,1.63,0,0,1,.09.19.54.54,0,0,1-.05-.11.54.54,0,0,0,.05.11,12.74,12.74,0,0,1,.56,1.32c1.46,2.83,4.09,5.08,5.49,7.94l.35.16A25.78,25.78,0,0,1,325.43,102.54Z"/><path class="cls-1" d="M341.24,144.57a7.06,7.06,0,0,0-.61-2.68c-12-31.53-30.07-57.51-58.47-74.09a139.33,139.33,0,0,0-68.87-19.25c-6.6-.12-13.12,0-19.67,2.05-7.52,2.33-15.52,2.88-23.08,5.13C135.73,66.1,107.46,87.08,86.4,118.5c-24.09,35.92-32.29,76-24.65,119.64.65,3.67,2.55,7.08,3.87,10.61l1.27-.39c0-1.89.12-3.8,0-5.68-.31-4.22-.93-8.41-1.1-12.63-.84-20.78,3.74-40.38,11.47-59.26a159,159,0,0,1,25.39-42.09c22.49-26.86,50.35-44,83.12-52.18a135.12,135.12,0,0,1,78,3.23,128.9,128.9,0,0,1,40.38,22.71c13,10.65,24,23.13,31.54,38.82,0,.06.05.13.08.19l-.05-.11.05.11c.19.43.37.87.52,1.32,1.36,2.83,3.8,5.08,5.11,7.94l.33.16A27.87,27.87,0,0,1,341.24,144.57Z"/><path class="cls-1" d="M28.25,293a6.68,6.68,0,0,0,.58,2.71c12,32,30.8,58.67,61,76.18a159,159,0,0,0,73.77,21.44c7.13.32,14.16.39,21.29-1.45,8.19-2.11,16.83-2.42,25-4.45,37.86-9.35,69-29.55,92.59-60.45,27-35.33,37-75.35,30-119.37-.59-3.7-2.55-7.18-3.87-10.77l-1.39.35c-.05,1.9-.23,3.81-.14,5.71.22,4.24.77,8.47.83,12.71.32,20.9-5.19,40.43-14.06,59.15a157.9,157.9,0,0,1-28.6,41.48c-25,26.28-55.6,42.63-91.19,49.85A156.4,156.4,0,0,1,110,360.5a142,142,0,0,1-42.92-24c-13.69-11.1-25.22-24-32.93-39.95,0-.06,0-.13-.08-.19s0,.07,0,.11,0-.07,0-.11a13,13,0,0,1-.53-1.35c-1.39-2.88-4-5.21-5.28-8.12l-.36-.17A25.71,25.71,0,0,1,28.25,293Z"/><path class="cls-1" d="M13.57,250.4a7.11,7.11,0,0,0,.54,2.7c11.14,32,28.55,58.61,56.59,76.07a140,140,0,0,0,68.6,21.28c6.63.31,13.18.36,19.81-1.49,7.62-2.13,15.67-2.45,23.32-4.5,35.25-9.42,64.23-29.68,86.28-60.62,25.21-35.39,34.58-75.42,28.15-119.43-.54-3.7-2.35-7.18-3.58-10.76L292,154c-.05,1.91-.22,3.82-.14,5.71.19,4.24.69,8.47.74,12.71.26,20.89-4.9,40.44-13.2,59.18a159.72,159.72,0,0,1-26.69,41.53c-23.35,26.33-51.81,42.74-84.94,50a135.89,135.89,0,0,1-78.22-5.47,129.37,129.37,0,0,1-39.88-23.95c-12.72-11.07-23.42-23.91-30.57-39.88,0-.07,0-.13-.07-.2s0,.08,0,.11,0-.07,0-.11a11.86,11.86,0,0,1-.49-1.34c-1.28-2.88-3.67-5.21-4.9-8.11L13.3,244A27.28,27.28,0,0,1,13.57,250.4Z"/><path class="cls-2" d="M681.67,191.68H603.49l-14.4,39.86H564.41l64.8-178.21h27l64.54,178.21H696.07ZM642.58,82.13l-32.4,90.52H675Z"/><path class="cls-2" d="M906.41,104.25h-28c-9.77-20.83-29.32-32.92-54.52-32.92-37.8,0-66.09,27.26-66.09,70.46,0,43,28.29,70.2,66.09,70.2,35.23,0,59.4-22.62,63-58.11H815.38v-19h96.43v18c-4.12,44.49-39.35,80.23-87.95,80.23-50.4,0-90-37.54-90-91.29s39.6-91.54,90-91.54C861.66,50.25,893,69.79,906.41,104.25Z"/><path class="cls-2" d="M936.23,52.3h23.4V231.54h-23.4Z"/><path class="cls-2" d="M584.16,292.06h23.4V471.3h-23.4Z"/><path class="cls-2" d="M746.93,431.44H668.76l-14.4,39.86H629.67l64.8-178.21h27L786,471.3H761.33ZM707.85,321.89l-32.41,90.52h64.81Z"/><path class="cls-2" d="M971.67,344h-28c-9.77-20.83-29.31-32.92-54.51-32.92-37.81,0-66.09,27.26-66.09,70.46,0,42.95,28.28,70.21,66.09,70.21,35.23,0,59.4-22.63,63-58.12H880.64v-19h96.43v18c-4.11,44.49-39.34,80.23-87.94,80.23-50.41,0-90-37.54-90-91.29s39.6-91.54,90-91.54C926.93,290,958.3,309.55,971.67,344Z"/><path class="cls-1" d="M1044.2,82.12h-18.76l-3.45,9.1h-5.93l15.55-40.69h6.48l15.49,40.69h-5.92Zm-9.38-25-7.77,20.67h15.55Z"/><path class="cls-1" d="M1059.88,63.45h-4.38V59h4.38V56.75c0-7.16,3.7-10.39,12.34-10.39v4.46c-5.06,0-6.72,1.76-6.72,5.93V59h7.09v4.41h-7.09V91.22h-5.62Z"/><path class="cls-1" d="M1083.21,91.22h-5.62V59h5.62v5.23c1.91-3.58,5.55-5.81,10.92-5.81V64h-1.48c-5.37,0-9.44,2.29-9.44,9.74Z"/><path class="cls-1" d="M1098.14,50.18a3.68,3.68,0,0,1,3.83-3.64,3.64,3.64,0,1,1,0,7.28A3.69,3.69,0,0,1,1098.14,50.18Zm.93,8.86h5.62V91.22h-5.62Z"/><path class="cls-1" d="M1127.09,58.52c8.39,0,13.88,4.11,15.61,10.86h-6c-1.17-3.88-4.57-6.34-9.56-6.34-6.18,0-10.74,4.17-10.74,12s4.56,12.15,10.74,12.15c5,0,8.32-2.29,9.56-6.34h6c-1.73,6.4-7.22,10.86-15.61,10.86-9.63,0-16.48-6.46-16.48-16.67S1117.46,58.52,1127.09,58.52Z"/><path class="cls-1" d="M1162.57,58.52c6.3,0,10.61,3,12.59,6.4V59h5.68V91.22h-5.68v-6c-2,3.47-6.42,6.52-12.65,6.52-9,0-16-6.75-16-16.73S1153.5,58.52,1162.57,58.52Zm1.11,4.64c-6.17,0-11.41,4.28-11.41,11.86s5.24,12,11.41,12,11.48-4.4,11.48-12S1169.85,63.16,1163.68,63.16Z"/><path class="cls-1" d="M1058.08,132.64h-6.72c-2.35-4.76-7-7.52-13.08-7.52-9.07,0-15.86,6.22-15.86,16.09s6.79,16,15.86,16c8.45,0,14.25-5.17,15.11-13.27h-17.15v-4.35h23.14v4.12c-1,10.15-9.44,18.32-21.1,18.32-12.1,0-21.6-8.58-21.6-20.85s9.5-20.91,21.6-20.91C1047.35,120.3,1054.88,124.77,1058.08,132.64Z"/><path class="cls-1" d="M1080,162.23c-9.57,0-16.85-6.46-16.85-16.67s7.53-16.56,17.09-16.56,17.1,6.4,17.1,16.56S1089.62,162.23,1080,162.23Zm0-4.7c5.86,0,11.6-3.81,11.6-12s-5.62-11.92-11.42-11.92-11.29,3.81-11.29,11.92S1074.14,157.53,1080,157.53Z"/><path class="cls-1" d="M1105.24,129.52l10.55,27.25,10.49-27.25h6L1119,161.7h-6.54l-13.27-32.18Z"/><path class="cls-1" d="M1150.91,162.23c-9.63,0-16.72-6.46-16.72-16.67S1141,129,1150.91,129s16.23,6.57,16.23,15.38a28.32,28.32,0,0,1-.19,3.23h-27c.44,6.52,5.25,10.1,11,10.1,5.06,0,8.27-2.47,9.5-5.93h6C1164.73,157.65,1159.3,162.23,1150.91,162.23Zm-10.92-19h21.35c.06-6.29-4.88-9.75-10.68-9.75A10.26,10.26,0,0,0,1140,143.27Z"/><path class="cls-1" d="M1178.62,161.7H1173V129.52h5.61v5.23c1.91-3.58,5.55-5.81,10.92-5.81v5.52h-1.48c-5.37,0-9.44,2.29-9.44,9.74Z"/><path class="cls-1" d="M1219.22,143.5c0-6.58-3.76-9.92-9.44-9.92s-9.68,3.4-9.68,10.33V161.7h-5.62V129.52h5.62v4.59c2.22-3.35,6.29-5.17,10.86-5.17,7.83,0,13.82,4.58,13.82,13.8v19h-5.56Z"/><path class="cls-1" d="M1246.38,129c6.29,0,10.61,3.05,12.59,6.4v-5.88h5.68V161.7H1259v-6c-2,3.47-6.42,6.52-12.65,6.52-9,0-16-6.75-16-16.73S1237.31,129,1246.38,129Zm1.11,4.64c-6.17,0-11.41,4.28-11.41,11.86s5.24,12,11.41,12,11.48-4.4,11.48-12S1253.66,133.64,1247.49,133.64Z"/><path class="cls-1" d="M1297.35,143.5c0-6.58-3.76-9.92-9.43-9.92s-9.69,3.4-9.69,10.33V161.7h-5.62V129.52h5.62v4.59c2.22-3.35,6.29-5.17,10.86-5.17,7.83,0,13.82,4.58,13.82,13.8v19h-5.56Z"/><path class="cls-1" d="M1324.94,129c8.4,0,13.89,4.11,15.61,10.86h-6c-1.17-3.88-4.57-6.34-9.57-6.34-6.17,0-10.73,4.17-10.73,12s4.56,12.15,10.73,12.15c5,0,8.33-2.29,9.57-6.34h6c-1.72,6.4-7.21,10.86-15.61,10.86-9.62,0-16.47-6.46-16.47-16.67S1315.32,129,1324.94,129Z"/><path class="cls-1" d="M1361.11,162.23c-9.63,0-16.72-6.46-16.72-16.67s6.85-16.56,16.72-16.56,16.23,6.57,16.23,15.38a26.2,26.2,0,0,1-.19,3.23h-27c.44,6.52,5.25,10.1,11,10.1,5.06,0,8.27-2.47,9.5-5.93h6.05C1374.93,157.65,1369.5,162.23,1361.11,162.23Zm-10.92-19h21.35c.06-6.29-4.88-9.75-10.68-9.75A10.26,10.26,0,0,0,1350.19,143.27Z"/><path class="cls-1" d="M1018.78,191.26h5.61v40.93h-5.61Z"/><path class="cls-1" d="M1057.16,214c0-6.58-3.76-9.92-9.44-9.92s-9.69,3.4-9.69,10.33v17.8h-5.61V200H1038v4.59c2.22-3.35,6.3-5.17,10.86-5.17,7.84,0,13.82,4.58,13.82,13.8v19h-5.55Z"/><path class="cls-1" d="M1082.34,232.71c-7.9,0-13.45-4.11-13.82-10h5.8c.31,3.11,3.21,5.46,8,5.46,4.44,0,6.91-2.11,6.91-4.75,0-7.17-20-3-20-15,0-4.93,4.87-9,12.4-9s12.4,3.81,12.77,10.1h-5.61c-.25-3.23-2.84-5.58-7.34-5.58-4.14,0-6.61,1.88-6.61,4.46,0,7.64,19.63,3.47,19.87,15C1094.68,228.72,1089.81,232.71,1082.34,232.71Z"/><path class="cls-1" d="M1102.28,204.41h-4.39V200h4.39v-8.1h5.61V200h8.83v4.41h-8.83v19c0,3.17,1.24,4.28,4.69,4.28h4.14v4.53h-5.06c-6,0-9.38-2.35-9.38-8.81Z"/><path class="cls-1" d="M1121,191.14a3.77,3.77,0,1,1,3.83,3.64A3.68,3.68,0,0,1,1121,191.14ZM1122,200h5.61v32.19H1122Z"/><path class="cls-1" d="M1136.84,204.41h-4.38V200h4.38v-8.1h5.61V200h8.83v4.41h-8.83v19c0,3.17,1.24,4.28,4.69,4.28h4.14v4.53h-5.06c-6,0-9.38-2.35-9.38-8.81Z"/><path class="cls-1" d="M1186.51,232.19h-5.61v-4.76c-2.16,3.35-6.3,5.22-10.8,5.22-7.78,0-13.88-4.58-13.88-13.79V200h5.55v18.15c0,6.52,3.76,9.87,9.44,9.87s9.69-3.41,9.69-10.34V200h5.61Z"/><path class="cls-1" d="M1195.71,204.41h-4.38V200h4.38v-8.1h5.62V200h8.82v4.41h-8.82v19c0,3.17,1.23,4.28,4.69,4.28h4.13v4.53h-5.06c-6,0-9.38-2.35-9.38-8.81Z"/><path class="cls-1" d="M1230,232.71c-9.63,0-16.73-6.46-16.73-16.67s6.85-16.56,16.73-16.56,16.22,6.57,16.22,15.38a28.34,28.34,0,0,1-.18,3.23h-27c.43,6.52,5.25,10.1,11,10.1,5,0,8.26-2.46,9.5-5.93h6C1243.85,228.13,1238.42,232.71,1230,232.71Zm-10.93-19h21.35c.07-6.29-4.87-9.75-10.67-9.75A10.27,10.27,0,0,0,1219.1,213.75Z"/><path class="cls-1" d="M1021.43,282.24h5.62v43.24h-5.62Z"/><path class="cls-1" d="M1059.81,306.25c0-6.95-3.76-10.49-9.44-10.49s-9.68,3.6-9.68,10.92v18.8h-5.62v-34h5.62v4.84c2.22-3.53,6.29-5.46,10.85-5.46,7.84,0,13.83,4.84,13.83,14.58v20h-5.56Z"/><path class="cls-1" d="M1085,326c-7.9,0-13.46-4.34-13.83-10.55h5.8c.31,3.29,3.21,5.77,8,5.77,4.45,0,6.91-2.23,6.91-5,0-7.57-20-3.17-20-15.82,0-5.22,4.88-9.5,12.41-9.5s12.4,4,12.77,10.67h-5.62c-.24-3.41-2.83-5.89-7.34-5.89-4.14,0-6.6,2-6.6,4.72,0,8.06,19.62,3.66,19.87,15.82C1097.34,321.82,1092.46,326,1085,326Z"/><path class="cls-1" d="M1104.93,296.14h-4.38v-4.66h4.38v-8.56h5.62v8.56h8.82v4.66h-8.82v20c0,3.35,1.23,4.53,4.68,4.53h4.14v4.77h-5.06c-6,0-9.38-2.48-9.38-9.3Z"/><path class="cls-1" d="M1123.69,282.11a3.77,3.77,0,1,1,3.83,3.85A3.78,3.78,0,0,1,1123.69,282.11Zm.93,9.37h5.61v34h-5.61Z"/><path class="cls-1" d="M1139.49,296.14h-4.38v-4.66h4.38v-8.56h5.62v8.56h8.82v4.66h-8.82v20c0,3.35,1.23,4.53,4.69,4.53h4.13v4.77h-5.06c-6,0-9.38-2.48-9.38-9.3Z"/><path class="cls-1" d="M1189.17,325.48h-5.62v-5c-2.16,3.53-6.29,5.52-10.8,5.52-7.77,0-13.88-4.84-13.88-14.58V291.48h5.55v19.17c0,6.89,3.77,10.43,9.44,10.43s9.69-3.6,9.69-10.92V291.48h5.62Z"/><path class="cls-1" d="M1198.37,296.14H1194v-4.66h4.39v-8.56H1204v8.56h8.83v4.66H1204v20c0,3.35,1.23,4.53,4.69,4.53h4.14v4.77h-5.07c-6,0-9.37-2.48-9.37-9.3Z"/><path class="cls-1" d="M1046.85,390.33h-18.76l-3.45,9.62h-5.92l15.55-43h6.47l15.49,43h-5.92Zm-9.37-26.43-7.78,21.84h15.55Z"/><path class="cls-1" d="M1062.53,370.6h-4.38V366h4.38v-2.42c0-7.57,3.71-11,12.35-11v4.71c-5.07,0-6.73,1.86-6.73,6.27V366h7.1v4.65h-7.1V400h-5.62Z"/><path class="cls-1" d="M1085.86,400h-5.61V366h5.61v5.52c1.91-3.78,5.55-6.14,10.92-6.14v5.83h-1.48c-5.37,0-9.44,2.42-9.44,10.3Z"/><path class="cls-1" d="M1100.8,356.58a3.76,3.76,0,1,1,3.82,3.85A3.78,3.78,0,0,1,1100.8,356.58Zm.92,9.37h5.62v34h-5.62Z"/><path class="cls-1" d="M1129.74,365.39c8.39,0,13.88,4.34,15.61,11.48h-6c-1.17-4.1-4.56-6.7-9.56-6.7-6.17,0-10.74,4.4-10.74,12.72s4.57,12.84,10.74,12.84c5,0,8.33-2.42,9.56-6.7h6c-1.73,6.76-7.22,11.48-15.61,11.48-9.63,0-16.48-6.83-16.48-17.62S1120.11,365.39,1129.74,365.39Z"/><path class="cls-1" d="M1165.22,365.39c6.3,0,10.62,3.23,12.59,6.76V366h5.68v34h-5.68v-6.33c-2,3.66-6.41,6.89-12.65,6.89-9,0-16-7.14-16-17.68S1156.15,365.39,1165.22,365.39Zm1.12,4.9c-6.18,0-11.42,4.53-11.42,12.54s5.24,12.71,11.42,12.71,11.47-4.65,11.47-12.65S1172.51,370.29,1166.34,370.29Z"/><path class="cls-1" d="M1190.53,356.58a3.77,3.77,0,1,1,3.82,3.85A3.78,3.78,0,0,1,1190.53,356.58Zm.92,9.37h5.62v34h-5.62Z"/><path class="cls-1" d="M1229.84,380.72c0-7-3.77-10.49-9.44-10.49s-9.69,3.6-9.69,10.92V400h-5.62V366h5.62v4.84c2.22-3.54,6.29-5.46,10.86-5.46,7.83,0,13.82,4.84,13.82,14.58v20h-5.55Z"/><path class="cls-1" d="M1272,365.39a14.7,14.7,0,0,1,12.52,6.64V354h5.68V400h-5.68v-6.39c-2,3.78-6.41,6.95-12.58,6.95-9.07,0-16-7.14-16-17.68S1262.86,365.39,1272,365.39Zm1,4.9c-6.17,0-11.42,4.53-11.42,12.54s5.25,12.71,11.42,12.71,11.47-4.65,11.47-12.65S1279.21,370.29,1273,370.29Z"/><path class="cls-1" d="M1312.78,400.51c-9.62,0-16.72-6.83-16.72-17.62s6.85-17.5,16.72-17.5,16.23,6.95,16.23,16.26a31.62,31.62,0,0,1-.18,3.41h-27c.43,6.89,5.24,10.67,11,10.67,5.06,0,8.27-2.61,9.51-6.27h6C1326.6,395.67,1321.17,400.51,1312.78,400.51Zm-10.92-20h21.35c.06-6.64-4.87-10.3-10.67-10.3C1307,370.17,1302.48,373.83,1301.86,380.47Z"/><path class="cls-1" d="M1021.43,428.5h5.62v45.92h-5.62Z"/><path class="cls-1" d="M1049,439.86c6.29,0,10.61,3.22,12.58,6.76v-6.2h5.68v34h-5.68v-6.33c-2,3.66-6.41,6.89-12.65,6.89-9,0-16-7.14-16-17.69S1039.94,439.86,1049,439.86Zm1.11,4.9c-6.17,0-11.42,4.53-11.42,12.53S1044,470,1050.13,470s11.47-4.65,11.47-12.66S1056.3,444.76,1050.13,444.76Z"/><path class="cls-1" d="M1129.49,443.7h-6.73c-2.34-5-7-7.94-13.08-7.94-9.07,0-15.86,6.58-15.86,17s6.79,16.94,15.86,16.94c8.45,0,14.26-5.46,15.12-14h-17.15v-4.59h23.13v4.34a20.9,20.9,0,0,1-21.1,19.36c-12.09,0-21.6-9.06-21.6-22s9.51-22.09,21.6-22.09C1118.75,430.67,1126.28,435.39,1129.49,443.7Z"/><path class="cls-1" d="M1151.4,475c-9.56,0-16.84-6.83-16.84-17.63s7.52-17.49,17.09-17.49,17.09,6.76,17.09,17.49S1161,475,1151.4,475Zm0-5c5.86,0,11.6-4,11.6-12.66s-5.61-12.59-11.41-12.59-11.3,4-11.3,12.59S1145.54,470,1151.4,470Z"/><path class="cls-1" d="M1204.6,474.42H1199v-5c-2.16,3.54-6.29,5.52-10.8,5.52-7.77,0-13.88-4.84-13.88-14.58V440.42h5.55v19.17c0,6.88,3.77,10.42,9.44,10.42s9.69-3.6,9.69-10.92V440.42h5.62Z"/><path class="cls-1" d="M1214.6,440.42l10.55,28.79,10.49-28.79h6l-13.27,34h-6.54l-13.27-34Z"/><path class="cls-1" d="M1260.27,475c-9.63,0-16.73-6.83-16.73-17.63s6.85-17.49,16.73-17.49,16.23,6.95,16.23,16.25a31.78,31.78,0,0,1-.19,3.42h-27c.43,6.88,5.25,10.67,11,10.67,5.06,0,8.26-2.61,9.5-6.27h6C1274.09,470.13,1268.66,475,1260.27,475Zm-10.93-20.05h21.35c.07-6.63-4.87-10.3-10.67-10.3C1254.53,444.63,1250,448.3,1249.34,454.93Z"/><path class="cls-1" d="M1288,474.42h-5.62v-34H1288v5.52c1.91-3.79,5.55-6.15,10.92-6.15v5.84h-1.48c-5.37,0-9.44,2.42-9.44,10.3Z"/><path class="cls-1" d="M1328.58,455.18c0-6.95-3.76-10.48-9.44-10.48s-9.69,3.6-9.69,10.92v18.8h-5.61v-34h5.61v4.84c2.23-3.54,6.3-5.47,10.86-5.47,7.84,0,13.83,4.84,13.83,14.59v20h-5.56Z"/><path class="cls-1" d="M1355.74,439.86c6.29,0,10.61,3.22,12.59,6.76v-6.2H1374v34h-5.67v-6.33c-2,3.66-6.42,6.89-12.65,6.89-9,0-16-7.14-16-17.69S1346.67,439.86,1355.74,439.86Zm1.11,4.9c-6.17,0-11.42,4.53-11.42,12.53s5.25,12.72,11.42,12.72,11.48-4.65,11.48-12.66S1363,444.76,1356.85,444.76Z"/><path class="cls-1" d="M1406.71,455.18c0-6.95-3.76-10.48-9.44-10.48s-9.68,3.6-9.68,10.92v18.8H1382v-34h5.62v4.84c2.22-3.54,6.29-5.47,10.85-5.47,7.84,0,13.83,4.84,13.83,14.59v20h-5.56Z"/><path class="cls-1" d="M1434.3,439.86c8.39,0,13.89,4.34,15.61,11.48h-6c-1.18-4.1-4.57-6.71-9.57-6.71-6.17,0-10.74,4.41-10.74,12.72s4.57,12.85,10.74,12.85c5,0,8.33-2.42,9.57-6.7h6c-1.72,6.76-7.22,11.48-15.61,11.48-9.62,0-16.47-6.83-16.47-17.63S1424.68,439.86,1434.3,439.86Z"/><path class="cls-1" d="M1470.47,475c-9.63,0-16.73-6.83-16.73-17.63s6.85-17.49,16.73-17.49,16.23,6.95,16.23,16.25a31.78,31.78,0,0,1-.19,3.42h-27c.44,6.88,5.25,10.67,11,10.67,5.06,0,8.27-2.61,9.5-6.27h6C1484.29,470.13,1478.86,475,1470.47,475Zm-10.92-20.05h21.34c.07-6.63-4.87-10.3-10.67-10.3C1464.73,444.63,1460.16,448.3,1459.55,454.93Z"/></svg>