<svg id="Calque_1" data-name="Calque 1" xmlns="http://www.w3.org/2000/svg" viewBox="0 0 500 500"><defs><style>.cls-1{fill:#5a622c;}.cls-2{fill:#f19328;}.cls-3,.cls-5{fill:#af1621;}.cls-4{fill:#fcdb1b;}.cls-5{stroke:#af1621;stroke-miterlimit:10;stroke-width:4px;}</style></defs><path class="cls-1" d="M366.78,243.94S382.7,227.63,382,209.86L381,208.4s-6.07,4-10.24,3.13l-2.46,1.67s-2.09-1.88-5.69,1.26c0,0-3-5.44-6.44-3.76l2.27-2.51s-1.32-5-11.94-10.87c0,0-2.08-2.51-4.92-10l-4.17-2.93s-.57-4.39-1.14-9c0,0-2.28-3.34-4.74-3.55A43.82,43.82,0,0,1,331,166s-2.08-.21-5.12-7.52c0,0-3.6-6.9-4.54-7.53l-1.52-3.14.76-1.25s3.41,6.27,5.87,7.32c0,0,3.23-4.39-.19-11.92,0,0-3.6,1.88-8.53-.84,0,0-4.73,1.05-6.82,2.72,0,0-1.7-1.88-5.31-.63,0,0,1.14-2.92-9.28-2.3l3-.83-6.25-1.26a1.53,1.53,0,0,0,.18-1.88c-.56-1.25-7.58-1.88-10,3.77,0,0,2.65,2.92-1.52,4.6,0,0-5.3-3.77-9.47-3.35,0,0-2.09-2.09-2.09-4.18,0,0-3.41-2.09-6.82-.84,0,0-2.09-3.76-5.12-2.51,0,0-4.17-2.51.95-5.43a4,4,0,0,0-1.9-4.6s1.71-.21,1.9-2.93a5.88,5.88,0,0,0-6.63,1s-3-2.3-8.34.2c0,0-8.15-3.55-15.17,1.26h-3.41s-6.25,4.81-12.13-1.88c0,0-2.46.83-4.17,5,0,0-4.93,3.76-8.72,4.8,0,0-3.41,3.77-3,8.37a18.35,18.35,0,0,1-9.85,6.27,10.43,10.43,0,0,0-3.61,5.23s-3.6,0-5.68,6.48c0,0-6.64,5.85-8.34,11.29,0,0,4.36,9.2-4.93,23.41l2.28,4.4-1.71,5s7.77,2.93,10.42,18.19c0,0,6.64,5.23,15,11.71,0,0,15.35-5,20.28-.42,0,0,21.6-12.75,24.26,1.05,0,0-.19,2.3,9.85-.42a8.12,8.12,0,0,1,1.9,11.5,10.16,10.16,0,0,1-1.52,7.53,37.43,37.43,0,0,1,.95,4s13.65,14.22,13.46,23.62l-1.33,1.26s3.79,7.73,2.46,11.29-5.3,1-5.49,19.65c0,0,8.72,13.59,8.72,18.19,0,0-1.33,11.5,5.49,18.61,0,0,3.79,7.74,3.79,9.2,0,0,3.41,2.3.76,5.44,0,0,.57,6.06,5.69,6.48a19,19,0,0,1,13.26-1.68c7.21,1.89,15.36-7.52,19.15-14.42l4.55-3.77s3.79-5.43,1.51-9c0,0,.95-2.92,3.6-3.34,0,0,8.91,0,5.31-14.43,0,0-3.41-2.51,4.36-6.27a9.22,9.22,0,0,0,3.22-4s10.62-2.51,11.75-9.62c0,0-.19-9.2-.19-11.92,0,0,3-2.3-1.89-4.6a7.51,7.51,0,0,0-1.9-5.64s3.79-4.6-.57-7.32A30.59,30.59,0,0,1,353,255.86S358.82,245.61,366.78,243.94Zm6.36,53s-4.52,9.3-13.07,11.19c0,0-3.43.41-3.67,4.58,0,0,2.08,7.29-1.47,11.33,0,0-3.05,3.24-1.46,9.71,0,0-1.23,3.5.61,5.8,0,0,2.2,1.48,2.32,2.29,0,0,4.28-2.7,6.35-2.29,0,0,5.14-12.41,8.8-22.79a29.54,29.54,0,0,0,3.3-10.52l.86,2.16s3.67-4.58-.86-12.67A1.3,1.3,0,0,0,373.14,296.91Z"/><path class="cls-1" d="M342.35,88.2a4.93,4.93,0,0,0-.47-1.92C332.62,63.62,318.66,44.94,296.71,33A113.69,113.69,0,0,0,243.52,19.2c-5.1-.09-10.13,0-15.19,1.47-5.82,1.67-12,2.07-17.83,3.69-26.89,7.45-48.72,22.53-65,45.11-18.6,25.82-24.94,54.64-19,86,.49,2.63,2,5.08,3,7.62l1-.28c0-1.36.09-2.73,0-4.09-.24-3-.72-6-.85-9.07-.65-14.94,2.89-29,8.86-42.59A113,113,0,0,1,158,76.8c17.37-19.3,38.9-31.62,64.21-37.5a111.85,111.85,0,0,1,60.23,2.32,101.82,101.82,0,0,1,31.19,16.32c10,7.66,18.52,16.62,24.36,27.9l.06.14,0-.08,0,.08a10.07,10.07,0,0,1,.41,1c1.05,2,2.93,3.65,3.94,5.7l.26.12A18.39,18.39,0,0,1,342.35,88.2Z"/><path class="cls-2" d="M353.71,118.4a5.06,5.06,0,0,0-.44-1.92c-8.61-22.66-21.61-41.34-42-53.25A100.08,100.08,0,0,0,261.76,49.4c-4.75-.09-9.43,0-14.14,1.47-5.41,1.67-11.16,2.07-16.59,3.69C206,62,185.7,77.09,170.56,99.67c-17.31,25.82-23.21,54.64-17.71,86,.46,2.63,1.83,5.08,2.77,7.62l.92-.28c0-1.36.08-2.73,0-4.09-.22-3-.66-6-.78-9.07-.61-14.94,2.68-29,8.24-42.59A114.41,114.41,0,0,1,182.22,107,111.32,111.32,0,0,1,242,69.5a97.18,97.18,0,0,1,56,2.32,92.6,92.6,0,0,1,29,16.32c9.32,7.66,17.24,16.62,22.67,27.9l.06.14,0-.08,0,.08a9.9,9.9,0,0,1,.38.95c1,2,2.73,3.65,3.66,5.7l.24.12A20.56,20.56,0,0,1,353.71,118.4Z"/><path class="cls-3" d="M128.77,225.11a4.82,4.82,0,0,0,.42,1.95c8.65,23,22.13,42.16,43.82,54.75a114.27,114.27,0,0,0,53,15.4c5.12.23,10.18.28,15.3-1,5.88-1.52,12.1-1.74,18-3.2,27.21-6.71,49.57-21.23,66.55-43.44,19.42-25.39,26.6-54.15,21.56-85.79-.42-2.66-1.83-5.16-2.78-7.74l-1,.25c0,1.37-.16,2.74-.09,4.1.15,3.05.54,6.09.59,9.14.23,15-3.73,29-10.11,42.51a113.55,113.55,0,0,1-20.55,29.81c-18,18.89-40,30.64-65.53,35.83a112.39,112.39,0,0,1-60.42-4.05,102.12,102.12,0,0,1-30.85-17.28c-9.83-8-18.12-17.22-23.66-28.71a.59.59,0,0,1-.06-.14l0,.08,0-.08a10.09,10.09,0,0,1-.38-1c-1-2.07-2.84-3.75-3.8-5.84l-.25-.12A18.66,18.66,0,0,1,128.77,225.11Z"/><path class="cls-4" d="M118.22,194.46a5,5,0,0,0,.39,1.95c8,23,20.51,42.12,40.67,54.66a100.52,100.52,0,0,0,49.3,15.3c4.77.22,9.47.26,14.24-1.07,5.48-1.53,11.26-1.76,16.76-3.23,25.33-6.78,46.16-21.33,62-43.58,18.12-25.43,24.86-54.2,20.24-85.83-.39-2.65-1.7-5.15-2.58-7.73l-.92.26c0,1.36-.16,2.74-.1,4.1.13,3.05.49,6.09.53,9.13.18,15-3.52,29.06-9.49,42.53a114.75,114.75,0,0,1-19.18,29.85,111.83,111.83,0,0,1-61,35.95,97.61,97.61,0,0,1-56.21-3.93,93,93,0,0,1-28.67-17.21c-9.13-8-16.83-17.18-22-28.66a1.21,1.21,0,0,1,0-.14s0,.05,0,.08,0,0,0-.08a10.18,10.18,0,0,1-.36-1c-.92-2.06-2.63-3.74-3.52-5.83l-.23-.12A20.29,20.29,0,0,1,118.22,194.46Z"/><path class="cls-5" d="M58.13,403.05h9.95v76.21H58.13Z"/><path class="cls-5" d="M127.34,462.31H94.1L88,479.26H77.48L105,403.49h11.48L144,479.26h-10.5Zm-16.62-46.57L96.94,454.22h27.55Z"/><path class="cls-5" d="M222.89,425.14H211c-4.15-8.86-12.46-14-23.18-14-16.07,0-28.1,11.59-28.1,30s12,29.85,28.1,29.85c15,0,25.26-9.62,26.79-24.71H184.19v-8.09h41v7.65c-1.75,18.92-16.73,34.12-37.4,34.12-21.43,0-38.26-16-38.26-38.82s16.83-38.92,38.26-38.92C203.87,402.18,217.21,410.49,222.89,425.14Z"/><path class="cls-3" d="M244.05,398.87h2.39v18.39h-2.39Z"/><path class="cls-3" d="M260.37,409.08c0-2.95-1.6-4.45-4-4.45s-4.11,1.53-4.11,4.64v8h-2.39V402.8h2.39v2.06a5.29,5.29,0,0,1,4.61-2.32c3.33,0,5.88,2.06,5.88,6.2v8.52h-2.36Z"/><path class="cls-3" d="M271.08,417.5c-3.36,0-5.72-1.85-5.88-4.49h2.46c.14,1.4,1.37,2.46,3.39,2.46s2.94-1,2.94-2.14c0-3.22-8.5-1.34-8.5-6.73,0-2.21,2.07-4,5.27-4s5.27,1.71,5.43,4.53H273.8c-.1-1.45-1.2-2.5-3.12-2.5-1.76,0-2.81.84-2.81,2,0,3.43,8.35,1.56,8.45,6.73C276.32,415.71,274.25,417.5,271.08,417.5Z"/><path class="cls-3" d="M279.55,404.78h-1.86v-2h1.86v-3.64h2.39v3.64h3.75v2h-3.75v8.52c0,1.43.52,1.93,2,1.93h1.76v2h-2.15c-2.55,0-4-1.05-4-4Z"/><path class="cls-3" d="M287.53,398.82a1.6,1.6,0,1,1,1.63,1.64A1.61,1.61,0,0,1,287.53,398.82Zm.39,4h2.39v14.46h-2.39Z"/><path class="cls-3" d="M294.25,404.78h-1.87v-2h1.87v-3.64h2.38v3.64h3.76v2h-3.76v8.52c0,1.43.53,1.93,2,1.93h1.76v2h-2.16c-2.54,0-4-1.05-4-4Z"/><path class="cls-3" d="M315.37,417.26H313v-2.14a5.27,5.27,0,0,1-4.59,2.35c-3.31,0-5.91-2.05-5.91-6.2V402.8h2.37V411c0,2.92,1.6,4.43,4,4.43s4.12-1.53,4.12-4.64V402.8h2.39Z"/><path class="cls-3" d="M319.28,404.78h-1.86v-2h1.86v-3.64h2.39v3.64h3.75v2h-3.75v8.52c0,1.43.52,1.93,2,1.93h1.76v2h-2.15c-2.55,0-4-1.05-4-4Z"/><path class="cls-3" d="M254.86,444.83h-8l-1.47,4.09h-2.52l6.62-18.28h2.75l6.59,18.28h-2.52Zm-4-11.23-3.31,9.28h6.62Z"/><path class="cls-3" d="M261.52,436.45h-1.86v-2h1.86v-1c0-3.22,1.58-4.67,5.25-4.67v2c-2.15,0-2.86.8-2.86,2.67v1h3v2h-3v12.47h-2.39Z"/><path class="cls-3" d="M271.44,448.92h-2.38V434.47h2.38v2.34a4.86,4.86,0,0,1,4.65-2.61v2.48h-.63c-2.29,0-4,1-4,4.38Z"/><path class="cls-3" d="M277.79,430.48a1.61,1.61,0,0,1,1.63-1.63,1.64,1.64,0,0,1,0,3.27A1.61,1.61,0,0,1,277.79,430.48Zm.4,4h2.38v14.45h-2.38Z"/><path class="cls-3" d="M290.1,434.23c3.57,0,5.9,1.85,6.64,4.88h-2.57a3.93,3.93,0,0,0-4.07-2.85c-2.62,0-4.57,1.87-4.57,5.41s2,5.46,4.57,5.46a3.87,3.87,0,0,0,4.07-2.85h2.57a6.4,6.4,0,0,1-6.64,4.88c-4.09,0-7-2.9-7-7.49S286,434.23,290.1,434.23Z"/><path class="cls-3" d="M305.19,434.23a6,6,0,0,1,5.35,2.88v-2.64H313v14.45h-2.41v-2.69a6,6,0,0,1-5.38,2.93c-3.83,0-6.79-3-6.79-7.52S301.33,434.23,305.19,434.23Zm.47,2.08c-2.62,0-4.85,1.93-4.85,5.33s2.23,5.41,4.85,5.41,4.88-2,4.88-5.38S308.28,436.31,305.66,436.31Z"/><path class="cls-3" d="M316,430.48a1.6,1.6,0,1,1,1.62,1.64A1.6,1.6,0,0,1,316,430.48Zm.39,4h2.39v14.45h-2.39Z"/><path class="cls-3" d="M332.66,440.75c0-3-1.6-4.46-4-4.46s-4.12,1.53-4.12,4.64v8h-2.39V434.47h2.39v2.06a5.28,5.28,0,0,1,4.61-2.33c3.34,0,5.88,2.06,5.88,6.2v8.52h-2.36Z"/><path class="cls-3" d="M350.58,434.23a6.27,6.27,0,0,1,5.33,2.82V429.4h2.41v19.52h-2.41v-2.71a5.9,5.9,0,0,1-5.35,3c-3.86,0-6.83-3-6.83-7.52S346.7,434.23,350.58,434.23Zm.45,2.08c-2.63,0-4.86,1.93-4.86,5.33s2.23,5.41,4.86,5.41,4.88-2,4.88-5.38S353.65,436.31,351,436.31Z"/><path class="cls-3" d="M367.93,449.16c-4.1,0-7.11-2.9-7.11-7.49s2.91-7.44,7.11-7.44a6.61,6.61,0,0,1,6.9,6.91,13.64,13.64,0,0,1-.08,1.45H363.26a4.53,4.53,0,0,0,4.67,4.54,4,4,0,0,0,4-2.66h2.57A6.48,6.48,0,0,1,367.93,449.16Zm-4.65-8.52h9.08a4.23,4.23,0,0,0-4.54-4.38A4.47,4.47,0,0,0,363.28,440.64Z"/><path class="cls-3" d="M244.05,461.06h2.39v19.53h-2.39Z"/><path class="cls-3" d="M255.78,465.89a6,6,0,0,1,5.35,2.88v-2.64h2.41v14.46h-2.41v-2.7a6,6,0,0,1-5.38,2.93c-3.83,0-6.79-3-6.79-7.52S251.92,465.89,255.78,465.89Zm.47,2.09c-2.62,0-4.85,1.92-4.85,5.32s2.23,5.41,4.85,5.41,4.88-2,4.88-5.38S258.87,468,256.25,468Z"/><path class="cls-3" d="M290,467.53h-2.86a5.82,5.82,0,0,0-5.56-3.38c-3.86,0-6.74,2.8-6.74,7.23s2.88,7.2,6.74,7.2a6.18,6.18,0,0,0,6.43-6h-7.29v-1.95h9.83v1.84a8.88,8.88,0,0,1-9,8.23,9.38,9.38,0,0,1,0-18.75A8.63,8.63,0,0,1,290,467.53Z"/><path class="cls-3" d="M299.31,480.82c-4.07,0-7.16-2.9-7.16-7.49a7.27,7.27,0,1,1,14.53,0A7.15,7.15,0,0,1,299.31,480.82Zm0-2.11c2.49,0,4.93-1.71,4.93-5.38s-2.39-5.35-4.85-5.35-4.8,1.71-4.8,5.35S296.82,478.71,299.31,478.71Z"/><path class="cls-3" d="M321.93,480.59h-2.39v-2.14A5.29,5.29,0,0,1,315,480.8c-3.31,0-5.9-2.06-5.9-6.2v-8.47h2.36v8.15c0,2.93,1.6,4.43,4,4.43s4.12-1.53,4.12-4.64v-7.94h2.39Z"/><path class="cls-3" d="M326.18,466.13l4.49,12.24,4.46-12.24h2.54L332,480.59h-2.78l-5.64-14.46Z"/><path class="cls-3" d="M345.6,480.82c-4.1,0-7.11-2.9-7.11-7.49s2.91-7.44,7.11-7.44a6.61,6.61,0,0,1,6.9,6.91,13.64,13.64,0,0,1-.08,1.45H340.93a4.53,4.53,0,0,0,4.67,4.54,4,4,0,0,0,4-2.66h2.57A6.46,6.46,0,0,1,345.6,480.82ZM341,472.3H350a4.23,4.23,0,0,0-4.54-4.38A4.47,4.47,0,0,0,341,472.3Z"/><path class="cls-3" d="M357.38,480.59H355V466.13h2.39v2.35a4.83,4.83,0,0,1,4.64-2.61v2.48h-.63c-2.28,0-4,1-4,4.37Z"/><path class="cls-3" d="M374.64,472.41c0-3-1.6-4.46-4-4.46s-4.12,1.53-4.12,4.64v8h-2.39V466.13h2.39v2.06a5.3,5.3,0,0,1,4.62-2.32c3.33,0,5.88,2.05,5.88,6.19v8.53h-2.37Z"/><path class="cls-3" d="M386.19,465.89a5.94,5.94,0,0,1,5.35,2.88v-2.64H394v14.46h-2.42v-2.7a6,6,0,0,1-5.38,2.93c-3.83,0-6.79-3-6.79-7.52S382.33,465.89,386.19,465.89Zm.47,2.09c-2.62,0-4.85,1.92-4.85,5.32s2.23,5.41,4.85,5.41,4.88-2,4.88-5.38S389.29,468,386.66,468Z"/><path class="cls-3" d="M407.86,472.41c0-3-1.6-4.46-4-4.46s-4.12,1.53-4.12,4.64v8h-2.39V466.13h2.39v2.06a5.3,5.3,0,0,1,4.62-2.32c3.33,0,5.88,2.05,5.88,6.19v8.53h-2.37Z"/><path class="cls-3" d="M419.59,465.89c3.57,0,5.91,1.85,6.64,4.88h-2.57a3.92,3.92,0,0,0-4.07-2.85c-2.62,0-4.56,1.88-4.56,5.41s1.94,5.46,4.56,5.46a3.86,3.86,0,0,0,4.07-2.85h2.57a6.39,6.39,0,0,1-6.64,4.88c-4.09,0-7-2.9-7-7.49S415.5,465.89,419.59,465.89Z"/><path class="cls-3" d="M435,480.82c-4.09,0-7.11-2.9-7.11-7.49s2.91-7.44,7.11-7.44a6.61,6.61,0,0,1,6.9,6.91,11.43,11.43,0,0,1-.08,1.45H430.3a4.54,4.54,0,0,0,4.67,4.54,4,4,0,0,0,4-2.66h2.57A6.46,6.46,0,0,1,435,480.82Zm-4.64-8.52h9.08a4.24,4.24,0,0,0-4.54-4.38A4.46,4.46,0,0,0,430.33,472.3Z"/></svg>